<?xml version="1.0" standalone="no"?>
<!DOCTYPE svg PUBLIC "-//W3C//DTD SVG 1.1//EN" "http://www.w3.org/Graphics/SVG/1.1/DTD/svg11.dtd">
<svg xmlns="http://www.w3.org/2000/svg">
<defs >
<font id="Cairo" horiz-adv-x="592" ><font-face
    font-family="Cairo Medium"
    units-per-em="1000"
    panose-1="0 0 0 0 0 0 0 0 0 0"
    ascent="1303"
    descent="-571"
    alphabetic="0" />
<glyph unicode=" " horiz-adv-x="220" />
<glyph unicode="!" horiz-adv-x="251" d="M86 231L80 690H171L165 231H86ZM79 0V119H172V0H79Z" />
<glyph unicode="&quot;" horiz-adv-x="384" d="M240 465L235 690H322L315 465H240ZM69 465L63 690H150L143 465H69Z" />
<glyph unicode="#" horiz-adv-x="559" d="M130 0V169H23V242H130V419H23L24 491H131V666H206V491H354V666H429V491H536V419H429V242H536V169H429L428 0H353V169H206V0H130ZM206 242H353V419H206V242Z" />
<glyph unicode="$" horiz-adv-x="559" d="M204 -124L258 323L310 315L257 -124H204ZM312 358L264 387L320 796L369 775L312 358ZM282 -9Q253 -9 215 -6T138 3T71 13L78 81Q106 78 143 74T216 68T278 65Q345 65 378 95T412 189Q412 224 399 244T354 277T270 300Q200
315 155 334T88 390T65 489Q65 555 91 595T165 653T280 671Q309 671 346 668T420 660T482 651L475 581Q447 584 411 588T341 594T286 597Q219 597 185 572T150 495Q150 455 165 434T214 401T304 376Q355 365 391 352T451 318T486 269T497 196Q497 122 471 77T396
12T282 -9Z" />
<glyph unicode="%" horiz-adv-x="566" d="M207 -22L157 -7L361 683L411 667L207 -22ZM139 386Q87 386 57 421T27 530Q27 603 57 636T139 670Q174 670 199 656T237 610T251 530Q251 456 221 421T139 386ZM139 442Q157 442 167 451T181 481T186 530Q186 559 182
578T167 606T139 615Q122 615 112 606T97 578T93 530Q93 501 97 481T112 452T139 442ZM427 -10Q375 -10 345 25T315 134Q315 207 344 240T427 274Q463 274 487 260T525 214T539 133Q539 60 509 25T427 -10ZM427 45Q445 45 455 54T469 84T474 133Q474 163 470 182T455
209T427 218Q410 218 400 210T385 182T380 134Q380 105 385 85T400 55T427 45Z" />
<glyph unicode="&amp;" horiz-adv-x="690" d="M289 -10Q195 -10 141 15T63 88T40 202Q40 261 56 299T107 362T192 404Q167 432 155 454T139 500T135 552Q135 619 182 660T315 701Q375 701 415 683T474 630T494 547Q494 500 479 467T430 409T342 358L485 216Q491
232 496 259T507 317T513 370L594 369Q591 334 583 295T566 222T547 163L672 47L626 -9L504 99Q470 45 415 18T289 -10ZM283 66Q337 66 378 86T443 149L240 351Q200 339 175 321T138 276T126 209Q126 139 162 103T283 66ZM292 408Q333 426 358 444T396 485T408
542Q408 585 386 607T315 629Q271 629 247 607T222 540Q222 516 226 498T245 460T292 408Z" />
<glyph unicode="&apos;" horiz-adv-x="212" d="M68 465L63 690H151L143 465H68Z" />
<glyph unicode="(" horiz-adv-x="269" d="M153 -125Q136 -91 118 -44T84 61T58 180T48 301Q48 361 58 424T83 548T117 661T153 750H235Q220 709 203 655T172 539T150 416T141 301Q141 249 149 190T172 72T203 -36T235 -125H153Z" />
<glyph unicode=")" horiz-adv-x="269" d="M116 -125H35Q49 -87 66 -36T97 73T119 191T128 302Q128 356 120 417T97 539T66 655T35 750H116Q133 714 151 662T185 550T211 426T221 302Q221 243 211 182T186 63T152 -43T116 -125Z" />
<glyph unicode="*" horiz-adv-x="420" d="M231 368L191 493L86 415L52 459L158 537L54 613L88 659L192 582L232 706L286 688L246 564H375V508H245L285 385L231 368Z" />
<glyph unicode="+" horiz-adv-x="559" d="M240 20V212H54V290H240V480H318V290H505V212H318V20H240Z" />
<glyph unicode="," horiz-adv-x="228" d="M33 -122L77 113H172L103 -122H33Z" />
<glyph unicode="-" horiz-adv-x="432" d="M65 235V313H368V235H65Z" />
<glyph unicode="." horiz-adv-x="221" d="M65 0V121H157V0H65Z" />
<glyph unicode="/" horiz-adv-x="422" d="M109 -18L31 8L314 710L392 683L109 -18Z" />
<glyph unicode="0" horiz-adv-x="559" d="M280 -10Q222 -10 177 6T101 60T53 162T37 321Q37 421 52 489T99 597T176 654T279 671Q339 671 384 654T459 597T506 490T522 321Q522 195 493 123T411 21T280 -10ZM280 67Q317 67 345 78T393 118T421 196T431 321Q431
402 422 454T395 538T348 581T280 594Q241 594 213 582T165 539T137 455T127 320Q127 245 137 196T167 118T215 79T280 67Z" />
<glyph unicode="1" horiz-adv-x="559" d="M306 0V563L140 454L102 520L313 660H394V0H306Z" />
<glyph unicode="2" horiz-adv-x="559" d="M68 0V73L252 266Q294 310 324 344T370 411T386 482Q386 545 352 568T247 592Q221 592 190 589T129 581T79 571L72 643Q94 649 125 655T193 665T265 670Q370 670 423 628T477 492Q477 443 462 404T416 327T337 244L170
76H492V0H68Z" />
<glyph unicode="3" horiz-adv-x="559" d="M276 -10Q239 -10 198 -6T121 5T61 17L68 88Q91 84 124 79T196 71T267 67Q337 67 370 97T404 187Q404 230 387 255T341 292T275 305H141V379H274Q299 379 325 392T370 431T389 493Q389 547 359 570T259 594Q227 594 193
591T128 583T77 573L70 643Q91 649 122 655T190 666T263 671Q343 671 390 653T458 596T479 498Q479 461 468 435T440 391T408 363T383 348Q417 336 442 319T481 272T495 190Q495 122 472 78T401 12T276 -10Z" />
<glyph unicode="4" horiz-adv-x="559" d="M354 0V125H39V193L221 660H318L130 203H354L355 402H442V203H522V125H442V0H354Z" />
<glyph unicode="5" horiz-adv-x="559" d="M282 -9Q245 -9 204 -4T124 7T61 20L70 90Q95 86 130 81T203 72T273 68Q339 68 377 105T415 213Q415 261 399 288T353 327T283 339Q254 339 225 333T171 319T131 301L72 312L90 660H479V581H161L144 379Q161 387 185 395T238
410T294 417Q359 417 406 398T479 335T505 221Q505 144 479 93T402 17T282 -9Z" />
<glyph unicode="6" horiz-adv-x="559" d="M286 -10Q161 -10 104 81T47 332Q47 423 65 487T118 592T200 651T307 670Q338 670 372 667T438 660T491 651L483 582Q464 584 434 586T372 591T308 593Q225 593 182 537T137 377Q146 380 163 385T203 398T250 409T297
414Q406 414 462 364T518 208Q518 138 491 89T412 15T286 -10ZM286 66Q355 66 392 103T430 208Q430 274 393 306T290 338Q264 338 235 332T179 318T136 302Q137 235 151 182T199 97T286 66Z" />
<glyph unicode="7" horiz-adv-x="559" d="M239 -10L156 14L399 554V581H76V660H489V550L239 -10Z" />
<glyph unicode="8" horiz-adv-x="559" d="M278 -10Q212 -10 155 6T64 61T30 168Q30 219 44 251T83 304T142 345Q91 371 66 405T41 500Q41 557 70 595T152 652T278 671Q349 671 403 653T487 596T518 499Q518 435 493 403T411 344Q446 328 472 308T513 257T528 179Q528
106 494 65T404 7T278 -10ZM278 68Q324 68 359 78T415 115T435 188Q435 224 421 246T382 281T326 304H225Q177 290 150 263T123 183Q123 140 143 115T198 79T278 68ZM225 378H326Q374 394 399 419T425 487Q425 545 387 569T279 593Q211 593 173 569T134 488Q134
445 157 420T225 378Z" />
<glyph unicode="9" horiz-adv-x="559" d="M247 -10Q217 -10 183 -7T118 0T63 9L72 79Q92 77 121 74T184 69T247 67Q333 67 376 120T420 284Q396 276 367 267T309 253T256 247Q151 247 96 296T40 451Q40 519 68 568T148 643T270 670Q354 670 407 629T485 511T510
328Q510 232 492 167T441 63T358 7T247 -10ZM264 324Q288 324 317 330T374 344T421 359Q421 428 406 480T358 563T270 593Q204 593 166 555T128 451Q128 385 163 355T264 324Z" />
<glyph unicode=":" horiz-adv-x="223" d="M65 317V438H158V317H65ZM65 0V121H158V0H65Z" />
<glyph unicode=";" horiz-adv-x="252" d="M45 -122L89 113H185L116 -122H45ZM84 317V438H176V317H84Z" />
<glyph unicode="&lt;" horiz-adv-x="559" d="M476 12L62 213V289L476 489V400L146 252L476 101V12Z" />
<glyph unicode="=" horiz-adv-x="559" d="M64 307V384H496V307H64ZM64 119V196H496V119H64Z" />
<glyph unicode="&gt;" horiz-adv-x="559" d="M82 12V101L412 252L82 400V489L497 289V213L82 12Z" />
<glyph unicode="?" horiz-adv-x="447" d="M158 203Q153 214 148 230T143 266Q143 290 155 311T187 353T235 397Q270 427 288 447T314 486T321 533Q321 583 291 604T194 625Q174 625 146 622T90 613T41 603L35 671Q57 678 87 685T149 697T205 702Q307 702 358 665T409
539Q409 495 402 467T375 415T316 358Q272 321 250 295T228 237V203H158ZM146 1V119H237V1H146Z" />
<glyph unicode="@" horiz-adv-x="979" d="M505 -204Q392 -204 307 -182T165 -107T79 36T50 261Q50 385 80 473T169 616T312 697T505 723Q656 723 751 678T892 539T937 306V292Q937 217 929 164T906 78T869 27T819 2T758 -6Q704 -6 674 14T637 54Q617 42 588 28T526
5T466 -5Q432 -5 400 4T343 40T302 116T287 246Q287 330 305 388T367 475T488 505Q515 505 548 497T603 478V495H688V304Q688 223 690 175T699 104T721 73T761 66Q783 66 800 72T829 101T847 169T853 292V307Q853 397 834 461T773 568T665 630T505 650Q412 650
342 628T225 559T155 439T132 261Q132 151 153 76T220 -44T336 -110T505 -130Q521 -130 546 -129T599 -125T648 -121L651 -195Q631 -197 604 -199T551 -202T505 -204ZM473 70Q493 70 518 76T568 93T611 113Q609 134 607 161T604 218T603 278V411Q584 418 556 424T505
430Q451 430 423 410T384 348T373 245Q373 190 381 156T404 103T436 77T473 70Z" />
<glyph unicode="A" horiz-adv-x="598" d="M22 0L208 690H391L577 0H489L441 170H157L109 0H22ZM174 246H424L324 616H274L174 246Z" />
<glyph unicode="B" horiz-adv-x="615" d="M81 0V690H336Q404 690 450 672T520 616T544 514Q544 471 534 441T505 390T458 355Q488 345 512 326T550 276T565 194Q565 140 550 103T505 43T437 10T347 0H81ZM169 74H343Q384 74 414 85T460 122T476 198Q476 235 463
258T428 293T383 309T340 313H169V74ZM169 387H339Q401 387 428 416T456 506Q456 563 426 589T332 616H169V387Z" />
<glyph unicode="C" horiz-adv-x="543" d="M312 -10Q233 -10 184 12T106 80T67 191T56 344Q56 432 66 499T105 611T184 678T312 701Q348 701 383 698T450 689T504 678L501 605Q479 609 448 613T383 619T323 622Q267 622 233 606T180 556T154 469T147 344Q147 273
154 221T179 135T232 85T324 68Q366 68 416 73T501 85L504 11Q480 6 448 1T381 -7T312 -10Z" />
<glyph unicode="D" horiz-adv-x="645" d="M81 0V690H330Q407 690 457 666T537 597T579 492T592 355Q592 280 580 216T539 103T459 27T331 0H81ZM169 77H330Q383 77 416 99T467 161T493 249T501 355Q501 410 494 457T468 539T416 593T330 613H169V77Z" />
<glyph unicode="E" horiz-adv-x="553" d="M81 0V690H508V613H169V388H448V312H169V77H508V0H81Z" />
<glyph unicode="F" horiz-adv-x="526" d="M81 0V690H500V613H169V355H447V278H169V0H81Z" />
<glyph unicode="G" horiz-adv-x="616" d="M325 -10Q245 -10 193 13T110 82T67 193T54 344Q54 431 66 497T110 609T193 678T323 701Q363 701 405 697T487 687T552 674L549 602Q523 607 485 611T407 619T334 622Q276 622 239 606T182 555T153 468T145 344Q145 250
159 189T214 97T332 67Q354 67 378 69T427 74T466 80V280H358V356H552V14Q535 11 507 7T446 -1T382 -7T325 -10Z" />
<glyph unicode="H" horiz-adv-x="674" d="M81 0V690H169V385H505V690H593V0H505V308H169V0H81Z" />
<glyph unicode="I" horiz-adv-x="250" d="M81 0V690H169V0H81Z" />
<glyph unicode="J" horiz-adv-x="291" d="M18 -69V8Q50 8 71 11T104 25T120 58T125 118V690H213V100Q213 44 202 10T167 -41T106 -63T18 -69Z" />
<glyph unicode="K" horiz-adv-x="572" d="M81 0V690H169V374L278 378L447 690H546L356 344L557 0H455L279 300L169 296V0H81Z" />
<glyph unicode="L" horiz-adv-x="479" d="M81 0V690H169V78H467V0H81Z" />
<glyph unicode="M" horiz-adv-x="842" d="M81 0V690H237L420 127L605 690H761V0H673V592H658L468 24H374L184 592H169V0H81Z" />
<glyph unicode="N" horiz-adv-x="678" d="M81 0V690H234L489 89H508V690H596V0H446L188 602H169V0H81Z" />
<glyph unicode="O" horiz-adv-x="661" d="M330 -10Q222 -10 162 29T78 147T54 342Q54 457 78 537T163 659T330 701Q438 701 498 660T582 538T607 342Q607 223 583 145T499 29T330 -10ZM330 67Q407 67 447 96T501 187T516 342Q516 432 501 495T446 591T330 624Q254
624 215 591T160 496T145 342Q145 251 159 190T213 98T330 67Z" />
<glyph unicode="P" horiz-adv-x="593" d="M81 0V690H335Q412 690 462 666T536 592T561 464Q561 387 537 335T462 255T335 227H169V0H81ZM169 303H334Q407 303 439 345T471 464Q471 542 439 578T334 614H169V303Z" />
<glyph unicode="Q" horiz-adv-x="660" d="M498 -147L409 -2Q394 -5 373 -7T330 -10Q222 -10 162 29T78 146T54 342Q54 457 78 537T163 659T330 701Q437 701 497 660T582 538T606 342Q606 222 582 144T493 28L578 -109L498 -147ZM330 67Q407 67 446 96T501 187T516
342Q516 432 501 495T446 591T330 624Q254 624 215 591T160 496T145 342Q145 250 159 189T213 98T330 67Z" />
<glyph unicode="R" horiz-adv-x="616" d="M81 0V690H339Q414 690 464 668T539 599T565 478Q565 402 535 351T442 277L570 0H474L356 258H169V0H81ZM169 334H341Q390 334 419 352T461 403T474 477Q474 546 441 580T339 614H169V334Z" />
<glyph unicode="S" horiz-adv-x="544" d="M275 -9Q243 -9 203 -6T122 3T52 13L60 85Q90 82 128 78T205 71T270 68Q340 68 375 99T410 198Q410 234 396 256T350 290T262 314Q189 329 141 350T70 409T46 512Q46 581 74 622T153 683T272 702Q302 702 341 699T418
691T483 681L477 608Q447 612 409 615T336 622T278 625Q207 625 171 599T135 519Q135 476 151 454T203 420T297 394Q350 381 388 367T451 333T487 281T499 205Q499 128 472 81T394 13T275 -9Z" />
<glyph unicode="T" horiz-adv-x="526" d="M220 0V612H13V690H513V612H308V0H220Z" />
<glyph unicode="U" horiz-adv-x="645" d="M320 -10Q243 -10 189 12T105 83T76 213V690H164V210Q164 134 205 101T320 67Q398 67 439 100T481 210V690H569V213Q569 133 540 84T456 12T320 -10Z" />
<glyph unicode="V" horiz-adv-x="584" d="M200 0L22 690H114L265 80H318L470 690H561L385 0H200Z" />
<glyph unicode="W" horiz-adv-x="889" d="M165 0L29 690H120L231 79H259L394 685H496L631 79H659L770 690H861L724 0H570L438 611H451L319 0H165Z" />
<glyph unicode="X" horiz-adv-x="560" d="M17 0L226 337L17 690H115L281 403L450 690H544L335 342L543 0H445L280 278L111 0H17Z" />
<glyph unicode="Y" horiz-adv-x="542" d="M227 0V286L9 690H107L270 375L435 690H533L315 286V0H227Z" />
<glyph unicode="Z" horiz-adv-x="538" d="M42 -1V95L392 592V613H42V690H496V594L145 97V77H496V-1H42Z" />
<glyph unicode="[" horiz-adv-x="331" d="M76 -123V749H292V673H162V-47H292V-123H76Z" />
<glyph unicode="\" horiz-adv-x="445" d="M338 -19L29 677L106 708L416 12L338 -19Z" />
<glyph unicode="]" horiz-adv-x="330" d="M255 -123H39V-47H168V673H39V749H255V-123Z" />
<glyph unicode="^" horiz-adv-x="564" d="M55 319L239 661H318L507 319H417L279 580L145 319H55Z" />
<glyph unicode="_" horiz-adv-x="629" d="M99 -160V-89H532V-160H99Z" />
<glyph unicode="`" horiz-adv-x="248" d="M222 588L1 671L34 742L249 643L222 588Z" />
<glyph unicode="a" horiz-adv-x="505" d="M182 -10Q111 -10 75 29T38 144Q38 194 55 225T108 272T195 292L345 307V348Q345 397 323 417T259 437Q233 437 199 435T130 430T69 424L65 488Q89 493 123 498T195 506T264 510Q322 510 359 493T413 441T431 349V99Q433
78 448 69T486 56L483 -10Q461 -10 442 -8T408 -1Q393 4 381 11T358 29Q339 21 310 12T248 -3T182 -10ZM197 60Q223 60 251 64T304 76T345 89V245L206 232Q163 228 144 207T125 146Q125 106 143 83T197 60Z" />
<glyph unicode="b" horiz-adv-x="529" d="M242 -10Q220 -10 189 -9T125 -4T69 1V716H154V477Q178 488 218 499T296 510Q365 510 405 485T463 403T481 258Q481 158 460 100T386 16T242 -10ZM241 66Q307 66 339 86T382 148T393 258Q393 320 384 359T350 416T285
435Q250 435 214 426T154 408V71Q175 69 201 68T241 66Z" />
<glyph unicode="c" horiz-adv-x="438" d="M257 -10Q177 -10 132 16T68 102T49 258Q49 349 70 405T137 485T258 510Q276 510 301 508T352 502T398 495L395 425Q377 427 355 429T312 432T276 434Q221 434 191 417T148 361T136 258Q136 187 146 145T187 85T276 66Q290
66 312 67T356 71T397 74L399 5Q379 1 353 -2T301 -7T257 -10Z" />
<glyph unicode="d" horiz-adv-x="532" d="M229 -10Q198 -10 171 -4T122 19T82 65T56 138T47 246Q47 335 68 393T135 481T258 510Q286 510 321 506T377 498V716H462V0H378V32Q362 24 337 14T284 -3T229 -10ZM242 66Q267 66 292 71T340 85T377 100V426Q365 428 345
430T304 434T264 436Q215 436 187 415T147 352T135 246Q135 189 143 154T167 99T201 73T242 66Z" />
<glyph unicode="e" horiz-adv-x="507" d="M250 -10Q174 -10 130 19T67 105T47 247Q47 341 73 399T146 483T260 510Q362 510 413 455T465 277L461 215H134Q135 141 162 103T260 64Q288 64 322 65T389 69T446 73L448 7Q424 3 389 -1T318 -7T250 -10ZM134 282H379Q379
370 351 405T260 441Q199 441 167 404T134 282Z" />
<glyph unicode="f" horiz-adv-x="333" d="M90 0V427H29V500H90V542Q90 614 103 654T147 710T227 726Q240 726 261 725T302 722T331 718L330 648Q312 649 288 649T247 650Q220 650 205 641T183 608T176 542V500H317V427H176V0H90Z" />
<glyph unicode="g" horiz-adv-x="517" d="M266 -234Q188 -234 140 -221T70 -175T47 -85Q47 -56 56 -36T82 2T125 39Q112 49 105 67T97 109Q97 120 109 144T132 188Q111 198 94 215T65 263T54 339Q54 431 106 470T244 510Q271 510 301 506T348 498L499 501V432L407
434Q421 420 430 398T439 339Q439 273 417 236T352 184T242 169Q235 169 219 170T194 173Q189 160 183 143T177 119Q177 100 184 91T217 78T298 75Q369 75 412 63T473 20T492 -72Q492 -158 433 -196T266 -234ZM266 -164Q339 -164 373 -144T407 -77Q407 -42 396
-26T358 -4T288 2Q278 2 263 2T231 3T201 5T182 6Q152 -15 141 -32T130 -77Q130 -108 141 -127T183 -155T266 -164ZM244 236Q304 236 329 259T354 339Q354 395 329 419T244 443Q188 443 164 419T139 339Q139 283 163 260T244 236Z" />
<glyph unicode="h" horiz-adv-x="540" d="M70 0V716H154V474Q180 486 223 498T305 510Q374 510 411 486T461 407T475 265V0H390V261Q390 324 383 362T354 417T288 434Q252 434 215 425T154 406V0H70Z" />
<glyph unicode="i" horiz-adv-x="224" d="M70 0V500H154V0H70ZM70 606V699H154V606H70Z" />
<glyph unicode="j" horiz-adv-x="224" d="M-16 -223L-49 -157Q-11 -135 12 -118T47 -84T65 -43T70 17V500H155V16Q155 -31 148 -65T121 -126T69 -174T-16 -223ZM70 606V699H155V606H70Z" />
<glyph unicode="k" horiz-adv-x="485" d="M70 0V716H154V298L229 300L364 500H460L304 269L468 0H372L231 226L154 222V0H70Z" />
<glyph unicode="l" horiz-adv-x="235" d="M75 0V716H160V0H75Z" />
<glyph unicode="m" horiz-adv-x="837" d="M70 0V500H154V466Q178 480 219 495T297 510Q347 510 377 498T426 460Q446 471 475 482T537 502T602 510Q671 510 707 487T758 409T773 264V0H688V260Q688 323 681 361T652 417T588 434Q549 434 512 423T455 400Q461 374
463 337T466 259V0H382V256Q382 322 375 361T347 417T281 434Q245 434 210 423T154 400V0H70Z" />
<glyph unicode="n" horiz-adv-x="540" d="M70 0V500H154V466Q171 476 196 486T250 503T305 510Q374 510 411 486T462 407T476 264V0H391V261Q391 324 384 362T355 417T288 434Q264 434 239 429T191 415T154 399V0H70Z" />
<glyph unicode="o" horiz-adv-x="531" d="M265 -10Q181 -10 134 19T67 106T48 256Q48 342 69 398T138 482T265 510Q345 510 393 483T462 399T483 256Q483 165 464 107T397 19T265 -10ZM265 63Q321 63 349 82T386 145T395 256Q395 323 384 363T344 420T265 437Q215
437 187 420T147 363T135 256Q135 188 144 145T181 83T265 63Z" />
<glyph unicode="p" horiz-adv-x="530" d="M70 -220V500H154V465Q170 475 194 485T245 503T299 510Q395 510 439 449T483 256Q483 158 461 100T390 16T264 -10Q234 -10 203 -6T154 1V-220H70ZM257 64Q310 64 340 83T382 145T395 256Q395 354 366 394T285 435Q262
435 238 429T191 415T154 398V73Q170 71 199 68T257 64Z" />
<glyph unicode="q" horiz-adv-x="529" d="M374 -220V22Q352 12 313 1T237 -10Q168 -10 127 16T66 99T47 242Q47 341 70 400T145 484T286 510Q306 510 336 509T400 505T460 500V-220H374ZM248 66Q284 66 319 75T374 93V432Q356 434 330 435T287 437Q225 437 192
416T147 352T134 242Q134 153 160 110T248 66Z" />
<glyph unicode="r" horiz-adv-x="348" d="M70 0V500H154V434Q173 447 201 462T264 492T332 511V426Q299 419 265 408T202 384T154 361V0H70Z" />
<glyph unicode="s" horiz-adv-x="467" d="M229 -10Q205 -10 172 -7T106 0T49 9L54 81Q79 78 110 74T172 68T221 65Q260 65 286 72T325 96T339 145Q339 169 329 182T291 204T210 220Q154 229 117 243T62 284T44 361Q44 418 70 450T138 496T226 510Q255 510 289
507T355 500T410 491L408 419Q384 423 352 426T287 432T231 435Q202 435 179 429T143 408T129 365Q129 344 139 331T176 310T255 292Q317 282 354 267T409 225T426 148Q426 59 374 25T229 -10Z" />
<glyph unicode="t" horiz-adv-x="352" d="M235 -11Q183 -11 152 5T108 60T94 172V427H25V500H94V650H179V500H332V427H179V196Q179 145 183 117T202 77T248 65Q258 65 273 66T305 68T334 71L339 0Q317 -3 287 -7T235 -11Z" />
<glyph unicode="u" horiz-adv-x="534" d="M223 -10Q159 -10 125 16T78 97T65 239V500H149V240Q149 176 155 138T183 83T247 66Q289 66 324 77T380 101V500H465V0H380V34Q348 16 311 3T223 -10Z" />
<glyph unicode="v" horiz-adv-x="485" d="M160 0L23 500H115L225 73H261L375 500H463L326 0H160Z" />
<glyph unicode="w" horiz-adv-x="765" d="M145 0L30 500H117L210 73H227L339 490H426L539 73H556L649 500H735L620 0H481L382 378L283 0H145Z" />
<glyph unicode="x" horiz-adv-x="457" d="M21 0L173 250L21 500H114L229 309L345 500H437L283 252L437 0H343L227 190L113 0H21Z" />
<glyph unicode="y" horiz-adv-x="487" d="M176 -220L241 0H162L24 500H110L228 73H261L379 500H465L263 -220H176Z" />
<glyph unicode="z" horiz-adv-x="457" d="M41 0V76L310 424H41V500H416V425L147 77H416V0H41Z" />
<glyph unicode="{" horiz-adv-x="352" d="M313 -128Q261 -126 224 -116T164 -84T131 -31T120 47Q120 64 121 83T124 120Q126 136 126 149T127 170Q127 211 103 236T23 277V346Q79 359 103 384T127 451Q127 461 126 475T124 507Q123 526 122 545T120 579Q120 626
130 658T164 712T225 743T314 755L315 682Q270 680 246 667T213 630T204 572Q204 559 205 543T208 508Q209 493 210 478T211 451Q211 410 202 384T171 341T108 312Q169 294 190 264T211 172Q211 162 210 150T208 124Q207 106 206 90T204 57Q204 25 212 1T245 -38T314
-55L313 -128Z" />
<glyph unicode="|" horiz-adv-x="235" d="M75 -221V716H160V-221H75Z" />
<glyph unicode="}" horiz-adv-x="352" d="M40 -129L39 -56Q84 -53 107 -39T140 -1T149 57Q149 73 148 89T145 123Q144 136 143 148T142 171Q142 232 163 262T244 311Q204 323 182 339T151 382T142 450Q142 461 143 476T145 507Q147 525 148 542T149 572Q149 605
140 629T107 666T38 682L39 755Q91 753 128 743T188 712T221 659T232 579Q232 564 231 545T228 506Q227 490 226 476T225 451Q225 409 249 384T330 346V277Q275 262 250 237T225 170Q225 162 226 149T228 120Q230 102 231 83T232 46Q232 1 222 -31T188 -84T128
-116T40 -129Z" />
<glyph unicode="~" horiz-adv-x="559" d="M381 191Q362 191 334 200T277 220T222 241T182 250Q167 250 148 243T110 225T77 204L67 274Q87 291 120 309T183 327Q203 327 230 318T286 298T340 277T383 268Q397 268 415 275T452 294T485 314L495 244Q476 227 444
209T381 191Z" />
<glyph unicode="&#xa0;" horiz-adv-x="220" />
<glyph unicode="&#xa1;" horiz-adv-x="233" d="M155 270L162 -190H70L77 270H155ZM162 500V381H70V500H162Z" />
<glyph unicode="&#xa2;" horiz-adv-x="559" d="M276 -81V36Q216 39 176 59T117 125T97 248Q97 323 117 369T177 439T275 465V582H343V463Q368 462 398 458T448 450L445 383Q430 385 406 386T356 389T313 390Q242 390 214 358T185 248Q185 197 197 167T238 124T319
110Q337 110 360 111T406 114T446 117L449 50Q429 47 399 43T343 38V-81H276Z" />
<glyph unicode="&#xa3;" horiz-adv-x="559" d="M78 0V75H160V349H94V416H160V471Q160 553 176 596T227 654T313 670Q334 670 359 667T409 661T451 653L448 584Q431 586 409 588T364 592T325 594Q293 594 276 583T251 544T244 465V416H411V349H244V75H393L471 91L484
18L401 0H78Z" />
<glyph unicode="&#xa4;" horiz-adv-x="559" d="M271 72Q222 75 182 101T119 169T99 261Q101 310 127 350T196 413T288 433Q338 431 378 405T440 336T460 244Q458 194 432 155T364 93T271 72ZM109 29L56 82L157 183L210 129L109 29ZM276 142Q306 141 331 155T373
194T390 249Q391 279 377 304T338 346T283 363Q253 364 228 350T186 311T169 256Q168 225 182 200T221 159T276 142ZM157 322L56 423L109 476L210 375L157 322ZM450 29L349 129L403 183L503 82L450 29ZM403 322L349 375L450 476L503 423L403 322Z" />
<glyph unicode="&#xa5;" horiz-adv-x="561" d="M237 0V160H58V228H237V292L230 313H57V380H191L22 660H118L281 396L442 660H539L372 380H504V313H334L325 292V228H504V160H325V0H237Z" />
<glyph unicode="&#xa6;" horiz-adv-x="239" d="M77 341V716H162V341H77ZM77 -221V157H162V-221H77Z" />
<glyph unicode="&#xa7;" horiz-adv-x="505" d="M249 -154Q224 -154 191 -151T126 -144T68 -135L76 -65Q89 -67 106 -69T142 -73T179 -76T214 -79T243 -80Q300 -80 330 -58T361 12Q361 43 346 58T300 82T219 101Q162 113 124 128T68 173T49 252Q49 289 68 324T108
377Q85 394 75 419T64 488Q64 545 87 581T154 634T260 652Q285 652 316 649T377 642T430 633L427 563Q402 566 371 569T312 575T266 577Q203 577 176 557T148 491Q148 459 162 442T208 415T288 395Q344 385 379 370T433 327T451 249Q451 215 438 178T408 117Q426
101 435 80T444 17Q444 -27 432 -59T394 -112T333 -143T249 -154ZM342 148Q350 162 358 188T366 239Q366 269 354 285T317 310T255 326Q227 331 204 336T167 347Q156 335 146 311T135 264Q135 221 160 204T242 176Q262 172 280 168T314 159T342 148Z" />
<glyph unicode="&#xa8;" horiz-adv-x="302" d="M212 617V712H292V617H212ZM11 617V712H90V617H11Z" />
<glyph unicode="&#xa9;" horiz-adv-x="645" d="M322 160Q246 160 187 197T93 296T58 434Q58 511 92 573T186 672T323 709Q401 709 461 672T554 572T588 434Q588 358 554 296T461 197T322 160ZM326 276Q282 276 257 292T220 344T209 436Q209 489 220 523T257 575T328
592Q351 592 373 589T405 581L401 524Q388 526 368 528T331 531Q306 531 294 521T277 490T273 436Q273 388 284 363T331 337Q348 337 368 339T401 343L405 288Q394 284 372 280T326 276ZM322 205Q386 205 435 236T513 319T542 434Q542 497 514 549T435 633T322
664Q259 664 210 633T132 550T103 434Q103 371 131 319T209 236T322 205Z" />
<glyph unicode="&#xaa;" horiz-adv-x="386" d="M329 356Q303 357 283 362T251 377T235 406V562Q235 584 224 592T187 599Q168 599 134 597T73 592L69 643Q97 650 130 654T194 659Q251 659 278 637T306 559V425Q311 418 318 415T334 409L329 356ZM136 356Q98 356
75 381T51 448Q51 530 149 536L255 542L256 494L161 487Q140 486 131 478T122 450Q122 413 156 413Q181 413 209 420T258 435L259 394Q236 377 203 367T136 356Z" />
<glyph unicode="&#xab;" horiz-adv-x="546" d="M473 62L284 218V278L473 427L482 346L359 250L482 143L473 62ZM233 62L43 218V278L233 427L241 346L118 250L241 143L233 62Z" />
<glyph unicode="&#xac;" horiz-adv-x="559" d="M419 123V278H62V354H495V123H419Z" />
<glyph unicode="&#xad;" horiz-adv-x="433" d="M65 235V313H368V235H65Z" />
<glyph unicode="&#xae;" horiz-adv-x="645" d="M322 160Q246 160 187 197T93 296T58 434Q58 511 92 573T186 672T322 709Q401 709 460 672T554 572T588 434Q588 358 554 296T461 197T322 160ZM322 205Q386 205 435 236T513 319T542 434Q542 497 514 549T435 633T322
664Q260 664 210 633T132 550T103 434Q103 371 131 319T210 236T322 205ZM211 282V585H325Q377 585 407 564T438 489Q438 452 428 431T388 396L443 282H378L329 387H273V282H211ZM273 436H329Q354 436 366 448T378 486Q378 512 364 524T318 536H273V436Z" />
<glyph unicode="&#xaf;" horiz-adv-x="249" d="M-10 620V685H269V620H-10Z" />
<glyph unicode="&#xb0;" horiz-adv-x="559" d="M280 418Q217 418 177 456T137 559Q137 622 177 661T280 701Q343 701 382 662T422 559Q422 495 383 457T280 418ZM280 470Q319 470 344 494T369 559Q369 599 344 623T280 648Q240 648 217 624T193 559Q193 519 216
495T280 470Z" />
<glyph unicode="&#xb1;" horiz-adv-x="559" d="M240 170V292H54V368H240V491H318V368H505V292H318V170H240ZM54 35V111H505V35H54Z" />
<glyph unicode="&#xb2;" horiz-adv-x="284" d="M31 467V526L118 613Q141 635 154 653T168 693Q168 712 155 720T120 729Q104 729 79 726T36 720L33 782Q53 786 83 789T138 793Q192 793 216 771T240 700Q240 676 233 658T213 624T177 587L117 530H242V467H31Z" />
<glyph unicode="&#xb3;" horiz-adv-x="284" d="M141 458Q117 458 84 461T30 468L34 528Q52 525 81 523T129 520Q157 520 169 529T182 560Q182 583 170 591T138 600H71V658H136Q151 658 162 669T173 700Q173 731 124 731Q106 731 80 729T38 724L34 785Q55 788 84
790T136 793Q192 793 219 773T246 708Q246 678 235 660T207 634Q230 627 241 611T253 560Q253 507 226 483T141 458Z" />
<glyph unicode="&#xb4;" horiz-adv-x="273" d="M51 588L25 643L240 742L273 671L51 588Z" />
<glyph unicode="&#xb5;" horiz-adv-x="527" d="M223 -10Q159 -10 125 16T78 97T65 239V500H149V240Q149 176 155 138T183 83T247 66Q289 66 324 77T380 101V500H465V0H380V34Q348 16 311 3T223 -10ZM67 -185V315H152V-185H67Z" />
<glyph unicode="&#xb6;" d="M230 0V316H223Q169 316 126 340T59 406T34 503Q34 559 59 601T126 667T224 691H551V617H480V0H412L411 590H301L298 0H230Z" />
<glyph unicode="&#xb7;" horiz-adv-x="222" d="M66 223V344H158V223H66Z" />
<glyph unicode="&#xb8;" horiz-adv-x="293" d="M147 -219Q122 -219 97 -217T58 -211L61 -161Q69 -162 91 -162T125 -163Q146 -163 157 -155T169 -127Q169 -108 158 -101T125 -94H86V2H129V-47Q186 -48 214 -63T243 -127Q243 -175 217 -197T147 -219Z" />
<glyph unicode="&#xb9;" horiz-adv-x="284" d="M129 467V705L61 661L30 713L134 784H199V467H129Z" />
<glyph unicode="&#xba;" horiz-adv-x="380" d="M191 356Q121 356 86 393T51 510Q51 588 86 623T191 659Q260 659 294 624T329 510Q329 431 295 394T191 356ZM191 421Q227 421 240 442T254 509Q254 556 241 575T191 594Q155 594 140 575T125 509Q125 463 140 442T191 421Z" />
<glyph unicode="&#xbb;" horiz-adv-x="547" d="M314 62L305 143L429 250L305 346L314 427L503 278V218L314 62ZM72 62L64 143L187 250L64 346L72 427L262 278V218L72 62Z" />
<glyph unicode="&#xbc;" horiz-adv-x="582" d="M129 467V705L61 661L30 713L134 784H199V467H129ZM112 0L66 27L453 665L499 637L112 0ZM442 -117V-69H300V-12L367 200H444L372 -7H442L447 80L511 81V-7H536V-69H511V-117H442Z" />
<glyph unicode="&#xbd;" horiz-adv-x="582" d="M129 467V705L61 661L30 713L134 784H199V467H129ZM112 0L66 27L453 665L499 637L112 0ZM330 -117V-58L417 29Q440 51 453 69T467 109Q467 128 454 136T419 145Q403 145 378 142T335 136L332 198Q352 202 382 205T437
209Q491 209 515 187T539 116Q539 92 532 74T512 40T476 3L416 -54H541V-117H330Z" />
<glyph unicode="&#xbe;" horiz-adv-x="582" d="M141 458Q117 458 84 461T30 468L34 528Q52 525 81 523T129 520Q157 520 169 529T182 560Q182 583 170 591T138 600H71V658H136Q151 658 162 669T173 700Q173 731 124 731Q106 731 80 729T38 724L34 785Q55 788 84
790T136 793Q192 793 219 773T246 708Q246 678 235 660T207 634Q230 627 241 611T253 560Q253 507 226 483T141 458ZM112 0L66 27L453 665L499 637L112 0ZM442 -117V-69H300V-12L367 200H444L372 -7H442L447 80L511 81V-7H536V-69H511V-117H442Z" />
<glyph unicode="&#xbf;" horiz-adv-x="443" d="M287 298Q292 288 296 272T301 236Q301 212 290 191T258 148T210 104Q174 74 156 54T131 15T124 -31Q124 -82 154 -103T250 -124Q271 -124 299 -121T355 -112T403 -102L410 -170Q387 -177 357 -184T296 -196T239
-201Q138 -201 87 -164T36 -37Q36 6 43 34T70 87T129 143Q173 180 194 206T216 264V298H287ZM299 500V382H207V500H299Z" />
<glyph unicode="&#xc0;" horiz-adv-x="598" d="M22 0L208 690H391L577 0H489L441 170H157L109 0H22ZM174 246H424L324 616H274L174 246ZM376 773L161 862L198 928L406 826L376 773Z" />
<glyph unicode="&#xc1;" horiz-adv-x="598" d="M22 0L208 690H391L577 0H489L441 170H157L109 0H22ZM174 246H424L324 616H274L174 246ZM216 773L185 826L394 928L431 862L216 773Z" />
<glyph unicode="&#xc2;" horiz-adv-x="598" d="M22 0L208 690H391L577 0H489L441 170H157L109 0H22ZM174 246H424L324 616H274L174 246ZM129 786L262 921H334L467 786H376L299 864L222 786H129Z" />
<glyph unicode="&#xc3;" horiz-adv-x="598" d="M22 0L208 690H391L577 0H489L441 170H157L109 0H22ZM174 246H424L324 616H274L174 246ZM379 796Q361 796 338 804T291 823T247 841T216 849Q203 849 181 833T143 802L125 863Q141 882 167 901T215 921Q235 921 258
913T304 895T346 877T378 869Q389 869 410 883T447 913L466 852Q452 834 427 815T379 796Z" />
<glyph unicode="&#xc4;" horiz-adv-x="598" d="M22 0L208 690H391L577 0H489L441 170H157L109 0H22ZM174 246H424L324 616H274L174 246ZM361 801V896H440V801H361ZM157 801V896H236V801H157Z" />
<glyph unicode="&#xc5;" horiz-adv-x="598" d="M22 0L208 690H391L577 0H489L441 170H157L109 0H22ZM174 246H424L324 616H274L174 246ZM299 636Q247 636 213 663T178 741Q178 792 212 819T299 847Q350 847 384 820T419 741Q419 691 385 664T299 636ZM299 690Q327
690 343 703T359 741Q359 766 343 779T299 792Q271 792 255 779T239 741Q239 717 255 704T299 690Z" />
<glyph unicode="&#xc6;" horiz-adv-x="876" d="M18 0L236 695H831V612H492V396H771V314H492V82H831V0H405V167H163L108 0H18ZM185 249H405L406 612H299L185 249Z" />
<glyph unicode="&#xc7;" horiz-adv-x="543" d="M312 -10Q233 -10 184 12T106 80T67 191T56 344Q56 432 66 499T105 611T184 678T312 701Q348 701 383 698T450 689T504 678L501 605Q479 609 448 613T383 619T323 622Q267 622 233 606T180 556T154 469T147 344Q147
273 154 221T179 135T232 85T324 68Q366 68 416 73T501 85L504 11Q480 6 448 1T381 -7T312 -10ZM340 -218Q315 -218 290 -216T251 -210L254 -160Q262 -161 284 -161T318 -162Q339 -162 350 -154T362 -126Q362 -107 351 -100T318 -93H279V3H322V-46Q379 -47 407
-62T436 -126Q436 -174 410 -196T340 -218Z" />
<glyph unicode="&#xc8;" horiz-adv-x="553" d="M81 0V690H508V613H169V388H448V312H169V77H508V0H81ZM380 773L165 862L202 928L410 826L380 773Z" />
<glyph unicode="&#xc9;" horiz-adv-x="553" d="M81 0V690H508V613H169V388H448V312H169V77H508V0H81ZM205 773L174 826L383 928L420 862L205 773Z" />
<glyph unicode="&#xca;" horiz-adv-x="553" d="M81 0V690H508V613H169V388H448V312H169V77H508V0H81ZM124 786L257 921H329L462 786H371L294 864L217 786H124Z" />
<glyph unicode="&#xcb;" horiz-adv-x="553" d="M81 0V690H508V613H169V388H448V312H169V77H508V0H81ZM356 801V896H435V801H356ZM152 801V896H231V801H152Z" />
<glyph unicode="&#xcc;" horiz-adv-x="250" d="M81 0V690H169V0H81ZM451 773L236 862L273 928L481 826L451 773Z" />
<glyph unicode="&#xcd;" horiz-adv-x="250" d="M81 0V690H169V0H81ZM301 773L270 826L479 928L516 862L301 773Z" />
<glyph unicode="&#xce;" horiz-adv-x="250" d="M81 0V690H169V0H81ZM208 786L341 921H413L546 786H455L378 864L301 786H208Z" />
<glyph unicode="&#xcf;" horiz-adv-x="250" d="M81 0V690H169V0H81ZM187 801V896H266V801H187ZM-17 801V896H62V801H-17Z" />
<glyph unicode="&#xd0;" horiz-adv-x="648" d="M19 307V387H323V307H19ZM84 0V690H333Q410 690 460 666T540 597T582 492T595 355Q595 280 583 216T542 103T462 27T334 0H84ZM172 77H333Q386 77 419 99T470 161T496 249T504 355Q504 410 497 457T471 539T419 593T333
613H172V77Z" />
<glyph unicode="&#xd1;" horiz-adv-x="678" d="M81 0V690H234L489 89H508V690H596V0H446L188 602H169V0H81ZM420 796Q402 796 379 804T332 823T288 841T257 849Q244 849 222 833T184 802L166 863Q182 882 208 901T256 921Q276 921 299 913T345 895T387 877T419
869Q430 869 451 883T488 913L507 852Q493 834 468 815T420 796Z" />
<glyph unicode="&#xd2;" horiz-adv-x="661" d="M330 -10Q222 -10 162 29T78 147T54 342Q54 457 78 537T163 659T330 701Q438 701 498 660T582 538T607 342Q607 223 583 145T499 29T330 -10ZM330 67Q407 67 447 96T501 187T516 342Q516 432 501 495T446 591T330
624Q254 624 215 591T160 496T145 342Q145 251 159 190T213 98T330 67ZM412 773L197 862L234 928L442 826L412 773Z" />
<glyph unicode="&#xd3;" horiz-adv-x="661" d="M330 -10Q222 -10 162 29T78 147T54 342Q54 457 78 537T163 659T330 701Q438 701 498 660T582 538T607 342Q607 223 583 145T499 29T330 -10ZM330 67Q407 67 447 96T501 187T516 342Q516 432 501 495T446 591T330
624Q254 624 215 591T160 496T145 342Q145 251 159 190T213 98T330 67ZM228 773L197 826L406 928L443 862L228 773Z" />
<glyph unicode="&#xd4;" horiz-adv-x="661" d="M330 -10Q222 -10 162 29T78 147T54 342Q54 457 78 537T163 659T330 701Q438 701 498 660T582 538T607 342Q607 223 583 145T499 29T330 -10ZM330 67Q407 67 447 96T501 187T516 342Q516 432 501 495T446 591T330
624Q254 624 215 591T160 496T145 342Q145 251 159 190T213 98T330 67ZM161 786L294 921H366L499 786H408L331 864L254 786H161Z" />
<glyph unicode="&#xd5;" horiz-adv-x="661" d="M330 -10Q222 -10 162 29T78 147T54 342Q54 457 78 537T163 659T330 701Q438 701 498 660T582 538T607 342Q607 223 583 145T499 29T330 -10ZM330 67Q407 67 447 96T501 187T516 342Q516 432 501 495T446 591T330
624Q254 624 215 591T160 496T145 342Q145 251 159 190T213 98T330 67ZM411 796Q393 796 370 804T323 823T279 841T248 849Q235 849 213 833T175 802L157 863Q173 882 199 901T247 921Q267 921 290 913T336 895T378 877T410 869Q421 869 442 883T479 913L498 852Q484
834 459 815T411 796Z" />
<glyph unicode="&#xd6;" horiz-adv-x="661" d="M330 -10Q222 -10 162 29T78 147T54 342Q54 457 78 537T163 659T330 701Q438 701 498 660T582 538T607 342Q607 223 583 145T499 29T330 -10ZM330 67Q407 67 447 96T501 187T516 342Q516 432 501 495T446 591T330
624Q254 624 215 591T160 496T145 342Q145 251 159 190T213 98T330 67ZM392 801V896H471V801H392ZM188 801V896H267V801H188Z" />
<glyph unicode="&#xd7;" horiz-adv-x="559" d="M122 39L68 93L228 251L69 408L122 462L280 303L438 463L492 408L332 251L492 93L437 39L280 198L122 39Z" />
<glyph unicode="&#xd8;" horiz-adv-x="661" d="M305 221L253 260L516 794L569 762L305 221ZM162 -114L94 -85L293 342L363 318L162 -114ZM330 -10Q222 -10 162 29T78 147T54 342Q54 457 78 537T163 659T330 701Q438 701 498 660T582 538T607 342Q607 223 583 145T499
29T330 -10ZM330 67Q407 67 447 96T501 187T516 342Q516 432 501 495T446 591T330 624Q254 624 215 591T160 496T145 342Q145 251 159 190T213 98T330 67Z" />
<glyph unicode="&#xd9;" horiz-adv-x="644" d="M320 -10Q243 -10 189 12T105 83T76 213V690H164V210Q164 134 205 101T320 67Q398 67 439 100T481 210V690H569V213Q569 133 540 84T456 12T320 -10ZM409 773L194 862L231 928L439 826L409 773Z" />
<glyph unicode="&#xda;" horiz-adv-x="645" d="M320 -10Q243 -10 189 12T105 83T76 213V690H164V210Q164 134 205 101T320 67Q398 67 439 100T481 210V690H569V213Q569 133 540 84T456 12T320 -10ZM228 773L197 826L406 928L443 862L228 773Z" />
<glyph unicode="&#xdb;" horiz-adv-x="644" d="M320 -10Q243 -10 189 12T105 83T76 213V690H164V210Q164 134 205 101T320 67Q398 67 439 100T481 210V690H569V213Q569 133 540 84T456 12T320 -10ZM153 786L286 921H358L491 786H400L323 864L246 786H153Z" />
<glyph unicode="&#xdc;" horiz-adv-x="645" d="M320 -10Q243 -10 189 12T105 83T76 213V690H164V210Q164 134 205 101T320 67Q398 67 439 100T481 210V690H569V213Q569 133 540 84T456 12T320 -10ZM385 801V896H464V801H385ZM181 801V896H260V801H181Z" />
<glyph unicode="&#xdd;" horiz-adv-x="542" d="M227 0V286L9 690H107L270 375L435 690H533L315 286V0H227ZM198 773L167 826L376 928L413 862L198 773Z" />
<glyph unicode="&#xde;" horiz-adv-x="600" d="M81 0V695H169V585H335Q412 585 462 561T537 487T562 360Q562 282 538 228T463 146T335 117H169V0H81ZM169 200H334Q406 200 439 242T472 360Q472 434 440 468T334 503H169V200Z" />
<glyph unicode="&#xdf;" horiz-adv-x="582" d="M349 -10Q319 -10 280 -5T213 5L217 75Q235 73 258 71T304 67T339 65Q410 65 435 90T461 165Q461 191 453 208T421 241T353 277Q312 296 289 312T255 348T245 395Q245 433 264 454T321 492Q360 509 372 526T384 573Q384
615 360 632T273 650Q230 650 204 640T166 604T154 531V0H70V539Q70 610 91 650T156 708T273 726Q343 726 387 711T452 664T473 580Q473 544 464 520T438 481T392 453Q356 436 344 427T332 403Q332 388 349 375T420 336Q468 313 496 292T536 245T549 177Q549 109
529 68T466 9T349 -10Z" />
<glyph unicode="&#xe0;" horiz-adv-x="505" d="M182 -10Q111 -10 75 29T38 144Q38 194 55 225T108 272T195 292L345 307V348Q345 397 323 417T259 437Q233 437 199 435T130 430T69 424L65 488Q89 493 123 498T195 506T264 510Q322 510 359 493T413 441T431 349V99Q433
78 448 69T486 56L483 -10Q461 -10 442 -8T408 -1Q393 4 381 11T358 29Q339 21 310 12T248 -3T182 -10ZM197 60Q223 60 251 64T304 76T345 89V245L206 232Q163 228 144 207T125 146Q125 106 143 83T197 60ZM340 588L119 671L152 742L367 643L340 588Z" />
<glyph unicode="&#xe1;" horiz-adv-x="505" d="M182 -10Q111 -10 75 29T38 144Q38 194 55 225T108 272T195 292L345 307V348Q345 397 323 417T259 437Q233 437 199 435T130 430T69 424L65 488Q89 493 123 498T195 506T264 510Q322 510 359 493T413 441T431 349V99Q433
78 448 69T486 56L483 -10Q461 -10 442 -8T408 -1Q393 4 381 11T358 29Q339 21 310 12T248 -3T182 -10ZM197 60Q223 60 251 64T304 76T345 89V245L206 232Q163 228 144 207T125 146Q125 106 143 83T197 60ZM143 588L117 643L332 742L365 671L143 588Z" />
<glyph unicode="&#xe2;" horiz-adv-x="505" d="M182 -10Q111 -10 75 29T38 144Q38 194 55 225T108 272T195 292L345 307V348Q345 397 323 417T259 437Q233 437 199 435T130 430T69 424L65 488Q89 493 123 498T195 506T264 510Q322 510 359 493T413 441T431 349V99Q433
78 448 69T486 56L483 -10Q461 -10 442 -8T408 -1Q393 4 381 11T358 29Q339 21 310 12T248 -3T182 -10ZM197 60Q223 60 251 64T304 76T345 89V245L206 232Q163 228 144 207T125 146Q125 106 143 83T197 60ZM95 589L216 732H273L397 589H316L246 674L177 589H95Z"
/>
<glyph unicode="&#xe3;" horiz-adv-x="505" d="M182 -10Q111 -10 75 29T38 144Q38 194 55 225T108 272T195 292L345 307V348Q345 397 323 417T259 437Q233 437 199 435T130 430T69 424L65 488Q89 493 123 498T195 506T264 510Q322 510 359 493T413 441T431 349V99Q433
78 448 69T486 56L483 -10Q461 -10 442 -8T408 -1Q393 4 381 11T358 29Q339 21 310 12T248 -3T182 -10ZM197 60Q223 60 251 64T304 76T345 89V245L206 232Q163 228 144 207T125 146Q125 106 143 83T197 60ZM308 608Q293 608 274 615T235 631T198 647T168 654Q155
654 133 641T95 614L76 667Q93 684 119 702T168 720Q185 720 204 713T242 698T279 682T307 675Q319 675 340 687T377 713L396 659Q381 643 356 626T308 608Z" />
<glyph unicode="&#xe4;" horiz-adv-x="505" d="M182 -10Q111 -10 75 29T38 144Q38 194 55 225T108 272T195 292L345 307V348Q345 397 323 417T259 437Q233 437 199 435T130 430T69 424L65 488Q89 493 123 498T195 506T264 510Q322 510 359 493T413 441T431 349V99Q433
78 448 69T486 56L483 -10Q461 -10 442 -8T408 -1Q393 4 381 11T358 29Q339 21 310 12T248 -3T182 -10ZM197 60Q223 60 251 64T304 76T345 89V245L206 232Q163 228 144 207T125 146Q125 106 143 83T197 60ZM325 617V712H405V617H325ZM124 617V712H203V617H124Z"
/>
<glyph unicode="&#xe5;" horiz-adv-x="505" d="M182 -10Q111 -10 75 29T38 144Q38 194 55 225T108 272T195 292L345 307V348Q345 397 323 417T259 437Q233 437 199 435T130 430T69 424L65 488Q89 493 123 498T195 506T264 510Q322 510 359 493T413 441T431 349V99Q433
78 448 69T486 56L483 -10Q461 -10 442 -8T408 -1Q393 4 381 11T358 29Q339 21 310 12T248 -3T182 -10ZM197 60Q223 60 251 64T304 76T345 89V245L206 232Q163 228 144 207T125 146Q125 106 143 83T197 60ZM257 540Q211 540 181 569T150 645Q150 689 180 719T257
749Q301 749 331 719T362 645Q362 600 332 570T257 540ZM257 591Q279 591 294 606T309 645Q309 667 294 682T257 698Q234 698 219 683T203 645Q203 622 218 607T257 591Z" />
<glyph unicode="&#xe6;" horiz-adv-x="803" d="M177 -10Q109 -10 74 30T38 144Q38 200 58 230T118 275T220 296L345 307V346Q345 390 324 410T262 430Q235 430 200 429T130 425T71 420L68 494Q94 498 129 501T201 507T267 510Q318 510 351 494T401 442Q428 478
467 494T556 510Q657 510 709 455T761 277L756 215H430Q430 141 457 104T555 66Q584 66 618 67T685 71T741 75L743 7Q719 3 685 -1T613 -7T545 -10Q493 -10 457 3T398 42Q363 26 328 15T256 -3T177 -10ZM192 62Q215 62 241 66T292 77T334 88T360 96Q351 121 347
162T343 240L206 229Q164 226 145 207T125 146Q125 105 142 84T192 62ZM430 282H675Q675 366 647 401T556 436Q494 436 462 400T430 282Z" />
<glyph unicode="&#xe7;" horiz-adv-x="438" d="M257 -10Q177 -10 132 16T68 102T49 258Q49 349 70 405T137 485T258 510Q276 510 301 508T352 502T398 495L395 425Q377 427 355 429T312 432T276 434Q221 434 191 417T148 361T136 258Q136 187 146 145T187 85T276
66Q290 66 312 67T356 71T397 74L399 5Q379 1 353 -2T301 -7T257 -10ZM268 -219Q243 -219 218 -217T179 -211L182 -161Q190 -162 212 -162T246 -163Q267 -163 278 -155T290 -127Q290 -108 279 -101T246 -94H207V2H250V-47Q307 -48 335 -63T364 -127Q364 -175 338
-197T268 -219Z" />
<glyph unicode="&#xe8;" horiz-adv-x="507" d="M250 -10Q174 -10 130 19T67 105T47 247Q47 341 73 399T146 483T260 510Q362 510 413 455T465 277L461 215H134Q135 141 162 103T260 64Q288 64 322 65T389 69T446 73L448 7Q424 3 389 -1T318 -7T250 -10ZM134 282H379Q379
370 351 405T260 441Q199 441 167 404T134 282ZM339 589L118 672L151 743L366 644L339 589Z" />
<glyph unicode="&#xe9;" horiz-adv-x="507" d="M250 -10Q174 -10 130 19T67 105T47 247Q47 341 73 399T146 483T260 510Q362 510 413 455T465 277L461 215H134Q135 141 162 103T260 64Q288 64 322 65T389 69T446 73L448 7Q424 3 389 -1T318 -7T250 -10ZM134 282H379Q379
370 351 405T260 441Q199 441 167 404T134 282ZM170 588L144 643L359 742L392 671L170 588Z" />
<glyph unicode="&#xea;" horiz-adv-x="507" d="M250 -10Q174 -10 130 19T67 105T47 247Q47 341 73 399T146 483T260 510Q362 510 413 455T465 277L461 215H134Q135 141 162 103T260 64Q288 64 322 65T389 69T446 73L448 7Q424 3 389 -1T318 -7T250 -10ZM134 282H379Q379
370 351 405T260 441Q199 441 167 404T134 282ZM111 589L232 732H289L413 589H332L262 674L193 589H111Z" />
<glyph unicode="&#xeb;" horiz-adv-x="507" d="M250 -10Q174 -10 130 19T67 105T47 247Q47 341 73 399T146 483T260 510Q362 510 413 455T465 277L461 215H134Q135 141 162 103T260 64Q288 64 322 65T389 69T446 73L448 7Q424 3 389 -1T318 -7T250 -10ZM134 282H379Q379
370 351 405T260 441Q199 441 167 404T134 282ZM340 617V712H420V617H340ZM139 617V712H218V617H139Z" />
<glyph unicode="&#xec;" horiz-adv-x="224" d="M72 0V500H157V0H72ZM421 588L200 671L233 742L448 643L421 588Z" />
<glyph unicode="&#xed;" horiz-adv-x="229" d="M72 0V500H157V0H72ZM62 588L36 643L251 742L284 671L62 588Z" />
<glyph unicode="&#xee;" horiz-adv-x="224" d="M72 0V500H157V0H72ZM215 589L336 732H393L517 589H436L366 674L297 589H215Z" />
<glyph unicode="&#xef;" horiz-adv-x="224" d="M72 0V500H157V0H72ZM446 617V712H526V617H446ZM245 617V712H324V617H245Z" />
<glyph unicode="&#xf0;" horiz-adv-x="548" d="M265 -9Q158 -9 99 48T40 215Q40 312 94 372T251 432Q277 432 307 426T365 413T412 396Q409 440 392 480T338 553T241 615T92 665L108 726Q235 703 322 656T454 535T499 352Q499 223 475 144T400 28T265 -9ZM265
66Q317 66 349 90T396 170T412 323Q394 331 367 338T312 351T256 357Q214 357 185 338T142 287T127 215Q127 144 161 105T265 66ZM158 514L122 564L386 742L422 691L158 514Z" />
<glyph unicode="&#xf1;" horiz-adv-x="540" d="M70 0V500H154V466Q171 476 196 486T250 503T305 510Q374 510 411 486T462 407T476 264V0H391V261Q391 324 384 362T355 417T288 434Q264 434 239 429T191 415T154 399V0H70ZM350 608Q335 608 316 615T277 631T240
647T210 654Q197 654 175 641T137 614L118 667Q135 684 161 702T210 720Q227 720 246 713T284 698T321 682T349 675Q361 675 382 687T419 713L438 659Q423 643 398 626T350 608Z" />
<glyph unicode="&#xf2;" horiz-adv-x="531" d="M265 -10Q181 -10 134 19T67 106T48 256Q48 342 69 398T138 482T265 510Q345 510 393 483T462 399T483 256Q483 165 464 107T397 19T265 -10ZM265 63Q321 63 349 82T386 145T395 256Q395 323 384 363T344 420T265
437Q215 437 187 420T147 363T135 256Q135 188 144 145T181 83T265 63ZM361 588L140 671L173 742L388 643L361 588Z" />
<glyph unicode="&#xf3;" horiz-adv-x="531" d="M265 -10Q181 -10 134 19T67 106T48 256Q48 342 69 398T138 482T265 510Q345 510 393 483T462 399T483 256Q483 165 464 107T397 19T265 -10ZM265 63Q321 63 349 82T386 145T395 256Q395 323 384 363T344 420T265
437Q215 437 187 420T147 363T135 256Q135 188 144 145T181 83T265 63ZM177 588L151 643L366 742L399 671L177 588Z" />
<glyph unicode="&#xf4;" horiz-adv-x="531" d="M265 -10Q181 -10 134 19T67 106T48 256Q48 342 69 398T138 482T265 510Q345 510 393 483T462 399T483 256Q483 165 464 107T397 19T265 -10ZM265 63Q321 63 349 82T386 145T395 256Q395 323 384 363T344 420T265
437Q215 437 187 420T147 363T135 256Q135 188 144 145T181 83T265 63ZM112 589L233 732H290L414 589H333L263 674L194 589H112Z" />
<glyph unicode="&#xf5;" horiz-adv-x="531" d="M265 -10Q181 -10 134 19T67 106T48 256Q48 342 69 398T138 482T265 510Q345 510 393 483T462 399T483 256Q483 165 464 107T397 19T265 -10ZM265 63Q321 63 349 82T386 145T395 256Q395 323 384 363T344 420T265
437Q215 437 187 420T147 363T135 256Q135 188 144 145T181 83T265 63ZM335 608Q320 608 301 615T262 631T225 647T195 654Q182 654 160 641T122 614L103 667Q120 684 146 702T195 720Q212 720 231 713T269 698T306 682T334 675Q346 675 367 687T404 713L423 659Q408
643 383 626T335 608Z" />
<glyph unicode="&#xf6;" horiz-adv-x="531" d="M265 -10Q181 -10 134 19T67 106T48 256Q48 342 69 398T138 482T265 510Q345 510 393 483T462 399T483 256Q483 165 464 107T397 19T265 -10ZM265 63Q321 63 349 82T386 145T395 256Q395 323 384 363T344 420T265
437Q215 437 187 420T147 363T135 256Q135 188 144 145T181 83T265 63ZM345 617V712H425V617H345ZM144 617V712H223V617H144Z" />
<glyph unicode="&#xf7;" horiz-adv-x="559" d="M54 213V290H505V213H54ZM237 29V133H322V29H237ZM237 369V473H322V369H237Z" />
<glyph unicode="&#xf8;" horiz-adv-x="531" d="M164 -82L104 -64L376 604L437 584L164 -82ZM153 -109L92 -89L366 578L427 560L153 -109ZM265 -10Q181 -10 134 19T67 106T48 256Q48 342 69 398T138 482T265 510Q345 510 393 483T462 399T483 256Q483 165 464 107T397
19T265 -10ZM265 63Q321 63 349 82T386 145T395 256Q395 323 384 363T344 420T265 437Q215 437 187 420T147 363T135 256Q135 188 144 145T181 83T265 63Z" />
<glyph unicode="&#xf9;" horiz-adv-x="534" d="M223 -10Q159 -10 125 16T78 97T65 239V500H149V240Q149 176 155 138T183 83T247 66Q289 66 324 77T380 101V500H465V0H380V34Q348 16 311 3T223 -10ZM333 588L112 671L145 742L360 643L333 588Z" />
<glyph unicode="&#xfa;" horiz-adv-x="534" d="M223 -10Q159 -10 125 16T78 97T65 239V500H149V240Q149 176 155 138T183 83T247 66Q289 66 324 77T380 101V500H465V0H380V34Q348 16 311 3T223 -10ZM180 588L154 643L369 742L402 671L180 588Z" />
<glyph unicode="&#xfb;" horiz-adv-x="534" d="M223 -10Q159 -10 125 16T78 97T65 239V500H149V240Q149 176 155 138T183 83T247 66Q289 66 324 77T380 101V500H465V0H380V34Q348 16 311 3T223 -10ZM105 589L226 732H283L407 589H326L256 674L187 589H105Z" />
<glyph unicode="&#xfc;" horiz-adv-x="534" d="M223 -10Q159 -10 125 16T78 97T65 239V500H149V240Q149 176 155 138T183 83T247 66Q289 66 324 77T380 101V500H465V0H380V34Q348 16 311 3T223 -10ZM352 617V712H432V617H352ZM151 617V712H230V617H151Z" />
<glyph unicode="&#xfd;" horiz-adv-x="487" d="M176 -220L241 0H162L24 500H110L228 73H261L379 500H465L263 -220H176ZM177 588L151 643L366 742L399 671L177 588Z" />
<glyph unicode="&#xfe;" horiz-adv-x="530" d="M70 -220V716H154V477Q179 488 219 499T297 510Q365 510 406 485T464 404T482 257Q482 159 461 101T390 16T254 -10Q233 -10 204 -8T154 -3V-220H70ZM247 64Q310 64 341 85T383 148T394 257Q394 320 385 359T351
416T286 435Q251 435 214 426T154 408V70Q175 68 202 66T247 64Z" />
<glyph unicode="&#xff;" horiz-adv-x="487" d="M176 -220L241 0H162L24 500H110L228 73H261L379 500H465L263 -220H176ZM325 617V712H405V617H325ZM124 617V712H203V617H124Z" />
<glyph unicode="&#x2013;" horiz-adv-x="626" d="M64 229V305H564V229H64Z" />
<glyph unicode="&#x2014;" horiz-adv-x="1126" d="M64 229V305H1064V229H64Z" />
<glyph unicode="&#x2018;" horiz-adv-x="224" d="M180 704L139 480H48L113 704H180Z" />
<glyph unicode="&#x2019;" horiz-adv-x="221" d="M51 481L93 705H184L118 481H51Z" />
<glyph unicode="&#x201a;" horiz-adv-x="224" d="M188 151L139 -110H34L110 151H188Z" />
<glyph unicode="&#x201c;" horiz-adv-x="385" d="M341 704L299 480H209L274 704H341ZM180 704L139 480H48L113 704H180Z" />
<glyph unicode="&#x201d;" horiz-adv-x="388" d="M51 482L93 706H184L118 482H51ZM219 482L261 706H351L286 482H219Z" />
<glyph unicode="&#x201e;" horiz-adv-x="371" d="M139 100L99 -94H33L90 100H139ZM300 100L260 -94H194L251 100H300Z" />
<glyph unicode="&#x2022;" horiz-adv-x="467" d="M108 108V392H359V108H108Z" />
<glyph unicode="&#x2039;" horiz-adv-x="305" d="M233 62L43 218V278L233 427L241 346L118 250L241 143L233 62Z" />
<glyph unicode="&#x203a;" horiz-adv-x="305" d="M72 66L64 146L187 254L64 351L72 430L261 282V222L72 66Z" />
</font>
</defs>
</svg>
